<?xml version="1.0" standalone="no"?>
<!DOCTYPE svg PUBLIC "-//W3C//DTD SVG 20010904//EN"
 "http://www.w3.org/TR/2001/REC-SVG-20010904/DTD/svg10.dtd">
<svg version="1.0" xmlns="http://www.w3.org/2000/svg"
 width="1920.000000pt" height="1920.000000pt" viewBox="0 0 1920.000000 1920.000000"
 preserveAspectRatio="xMidYMid meet">
<metadata>
Created by potrace 1.14, written by Peter Selinger 2001-2017
</metadata>
<g transform="translate(0.000000,1920.000000) scale(0.100000,-0.100000)"
fill="#000000" stroke="none">
<path d="M0 9600 l0 -9600 9600 0 9600 0 0 9600 0 9600 -9600 0 -9600 0 0
-9600z m13591 3506 c1215 -192 1909 -902 1909 -1952 0 -83 -3 -178 -6 -211
l-6 -59 -32 4 c-17 2 -38 12 -46 22 -20 24 -211 57 -381 66 l-125 6 -1 152 c0
121 -4 166 -21 227 -115 423 -531 670 -1267 755 -211 25 -662 25 -795 2 -223
-40 -397 -97 -609 -201 l-124 -61 -33 20 c-18 10 -63 37 -101 59 -37 21 -74
45 -81 52 -7 7 -21 13 -30 14 -50 1 -204 148 -423 404 l-52 59 39 33 c110 94
389 265 572 350 299 138 669 238 1012 272 132 13 484 6 601 -13z m-2525 -1471
c42 -27 66 -75 61 -121 -6 -55 -187 -344 -761 -1214 l-116 -175 212 -206 c388
-376 840 -867 858 -929 13 -48 -3 -103 -41 -134 -72 -61 -116 -50 -276 71
-237 179 -555 440 -831 682 -79 69 -147 127 -151 129 -5 1 -32 -39 -61 -90
-118 -206 -328 -551 -417 -687 -152 -231 -229 -330 -271 -348 -90 -37 -185 28
-184 126 2 99 304 728 533 1110 l98 164 -97 90 c-173 161 -664 658 -792 803
-202 227 -241 278 -247 322 -11 80 53 152 135 152 46 0 69 -15 287 -178 263
-198 531 -420 803 -666 l161 -146 24 33 c13 17 59 82 102 142 214 298 719 959
794 1038 20 22 45 43 56 48 28 12 91 4 121 -16z m-5290 -100 c479 -79 848
-146 874 -160 71 -36 100 -137 61 -212 -28 -56 -79 -86 -144 -85 -29 0 -272
28 -542 62 -323 41 -508 60 -544 56 -121 -11 -237 -99 -292 -221 -46 -101
-116 -316 -154 -469 -34 -139 -75 -372 -75 -432 l0 -30 248 -18 c275 -19 304
-26 335 -86 24 -46 18 -112 -14 -147 -47 -50 -67 -53 -280 -38 -107 8 -220 17
-253 20 l-59 6 7 -123 c20 -369 97 -675 242 -968 79 -159 146 -267 235 -378
64 -80 78 -122 60 -182 -14 -47 -78 -107 -125 -115 -76 -15 -145 34 -286 200
-269 317 -445 737 -506 1210 -23 174 -23 530 0 715 42 343 157 761 277 1006
123 252 384 420 655 423 39 1 165 -15 280 -34z m1533 -473 c69 -37 71 -50 71
-397 0 -707 53 -1100 183 -1364 123 -248 270 -286 557 -145 97 48 127 69 191
133 121 121 166 231 176 431 12 242 -64 547 -216 859 -23 48 -41 100 -41 118
0 100 102 161 194 118 39 -19 97 -105 183 -270 297 -576 307 -1112 25 -1466
-128 -162 -368 -312 -590 -370 -348 -91 -652 50 -821 380 -178 349 -234 942
-151 1596 38 298 53 343 121 377 44 23 76 23 118 0z m-1001 -409 c14 -10 35
-32 46 -47 21 -27 21 -40 27 -849 9 -1100 27 -1355 105 -1511 42 -84 88 -132
162 -168 60 -30 74 -33 152 -32 66 1 102 7 160 29 129 47 308 139 500 255 237
144 229 140 272 140 50 0 79 -12 116 -50 42 -41 58 -101 42 -155 -24 -78 -297
-332 -505 -468 -278 -181 -516 -250 -734 -213 -317 55 -560 281 -650 606 -69
252 -85 648 -50 1270 27 487 95 1076 132 1142 40 74 159 100 225 51z m2031
-2717 c98 -65 158 -115 269 -225 78 -77 142 -146 142 -153 0 -22 -374 -383
-505 -488 -448 -358 -900 -562 -1420 -642 -169 -25 -504 -31 -655 -9 -555 77
-1082 320 -1594 735 -142 115 -336 286 -336 296 0 4 11 11 24 14 13 3 45 29
71 58 135 149 274 288 287 288 9 0 21 7 28 15 7 9 17 14 23 12 5 -1 30 19 55
45 l44 48 82 -77 c702 -661 1563 -906 2266 -646 315 117 582 303 905 629 99
100 182 183 184 183 2 1 61 -37 130 -83z"/>
</g>
</svg>
